<?xml version="1.0" encoding="UTF-8" standalone="no"?>
<svg
   xmlns:dc="http://purl.org/dc/elements/1.1/"
   xmlns:cc="http://creativecommons.org/ns#"
   xmlns:rdf="http://www.w3.org/1999/02/22-rdf-syntax-ns#"
   xmlns:svg="http://www.w3.org/2000/svg"
   xmlns="http://www.w3.org/2000/svg"
   xmlns:sodipodi="http://sodipodi.sourceforge.net/DTD/sodipodi-0.dtd"
   xmlns:inkscape="http://www.inkscape.org/namespaces/inkscape"
   version="1.1"
   id="svg867"
   width="2133.3333"
   height="2666.6667"
   viewBox="0 0 2133.3333 2666.6667"
   sodipodi:docname="v6-avatar4.svg"
   inkscape:version="1.0.1 (3bc2e813f5, 2020-09-07)">
  <metadata
     id="metadata873">
    <rdf:RDF>
      <cc:Work
         rdf:about="">
        <dc:format>image/svg+xml</dc:format>
        <dc:type
           rdf:resource="http://purl.org/dc/dcmitype/StillImage" />
        <dc:title></dc:title>
      </cc:Work>
    </rdf:RDF>
  </metadata>
  <defs
     id="defs871" />
  <sodipodi:namedview
     pagecolor="#ffffff"
     bordercolor="#666666"
     borderopacity="1"
     objecttolerance="10000"
     gridtolerance="10000"
     guidetolerance="10000"
     inkscape:pageopacity="0"
     inkscape:pageshadow="2"
     inkscape:window-width="2560"
     inkscape:window-height="1350"
     id="namedview869"
     showgrid="true"
     inkscape:zoom="0.21449999"
     inkscape:cx="3085.2676"
     inkscape:cy="1353.5816"
     inkscape:window-x="0"
     inkscape:window-y="28"
     inkscape:window-maximized="1"
     inkscape:current-layer="g875">
    <inkscape:grid
       type="xygrid"
       id="grid925" />
  </sodipodi:namedview>
  <g
     inkscape:groupmode="layer"
     inkscape:label="Image"
     id="g875">
    <path
       style="fill:#000000;stroke-width:1.06667"
       d="m 134.4,2575.3382 c -14.08,-0.4774 -27.52,-1.1703 -29.8667,-1.5398 -6.8245,-1.0747 -12.8174,-5.1845 -14.8055,-10.1534 -4.6248,-11.5583 -0.028,-20.1095 17.2722,-32.1298 3.7033,-2.5733 8.2158,-5.7596 10.0278,-7.0808 1.8119,-1.3213 5.2619,-2.8971 7.6666,-3.5022 2.4047,-0.6049 9.1722,-2.746 15.0389,-4.7581 9.7456,-3.3424 164.1022,-49.418 274.6667,-81.9882 24.9333,-7.3449 48.8007,-14.7657 53.0387,-16.4907 25.3738,-10.3279 41.0946,-27.7536 48.0587,-53.2706 l 2.835,-10.3879 0.3548,-64.4784 c 0.3875,-70.4213 -0.1658,-80.6343 -5.7167,-105.5155 -6.4097,-28.7305 -14.9161,-49.0057 -37.6503,-89.7395 -23.8361,-42.7081 -88.1373,-173.5777 -132.3338,-269.3333 -5.6863,-12.32 -11.6999,-24.56 -13.3635,-27.2 -1.6636,-2.64 -11.9493,-13.9209 -22.8571,-25.0687 -30.0662,-30.7275 -52.086,-58.1727 -72.3137,-90.1313 -43.6608,-68.9813 -71.1508,-146.0136 -83.447,-233.8343 -7.0365,-50.2558 -9.2654,-118.9114 -5.3252,-164.0324 2.3904,-27.373 10.5647,-67.5644 18.159,-89.2829 8.2391,-23.5628 21.4624,-38.1779 32.6444,-36.0802 L 200,1160 l -0.01,-5.115 c 0,-2.8133 -0.7163,-14.715 -1.5813,-26.4484 C 200,440 600.9004,136.3633 1048.2327,133.8666 1550.9004,136.3633 1920,440 1930,1120 c -0.5462,7.92 -2.1387,22.9749 -2.4387,29.0104 l -0.5442,10.9738 3.5819,-0.672 c 13.2803,-2.4914 28.2441,17.6573 37.2754,50.1911 10.9756,39.5379 15.5934,76.3724 15.5789,124.2667 -0.044,142.9906 -31.1585,256.8287 -97.3286,356.0877 -19.5623,29.3445 -39.3969,53.4827 -68.0754,82.8457 -10.3139,10.56 -20.0076,21.36 -21.5417,24 -1.5342,2.64 -6.1244,12.24 -10.2006,21.3333 -4.0762,9.0933 -11.5918,25.1733 -16.7015,35.7333 -5.1095,10.56 -19.5165,40.8 -32.0152,67.2 -43.2085,91.2647 -62.5122,129.6135 -89.2887,177.3803 -7.0029,12.4925 -14.8765,27.5493 -17.4969,33.4595 -10.8791,24.537 -19.157,56.0734 -21.6537,82.4936 -1.4231,15.0605 -1.6317,130.2943 -0.2499,138.1333 4.6699,26.4936 14.7824,43.5012 32.9618,55.4357 14.0931,9.252 8.8381,7.5025 134.6699,44.8351 211.8434,62.8512 215.7542,64.0715 232.7139,72.6122 13.6232,6.8606 23.8941,15.2893 27.7654,22.7856 1.6987,3.2892 2.0315,5.3711 1.5325,9.5848 -0.8016,6.7677 -3.1783,10.0724 -9.5379,13.2617 -4.3663,2.1896 -7.3261,2.6316 -22.8779,3.4156 -24.9557,1.2581 -156.8626,1.1946 -179.4627,-0.086 -62.0346,-3.5164 -117.6958,-14.0126 -174.8754,-32.9768 -35.7456,-11.8553 -79.0259,-30.2968 -99.0294,-42.1958 -32.0541,-19.0671 -52.7566,-43.4074 -62.5958,-73.5948 -4.9483,-15.1821 -6.1088,-24.6646 -6.3973,-52.2769 -0.3423,-32.7442 -2.2646,-44.5166 -9.004,-55.1411 -3.8729,-6.1059 -8.4347,-8.6303 -15.5954,-8.6303 -10.9715,0 -22.4432,5.6287 -54.9027,26.9388 C 1317.0246,2392.0807 1215,2440 1055,2440 c -155,0 -212.6801,-22.0389 -336.2657,-102.6674 -33.7032,-22.1273 -43.3695,-26.0012 -58.9614,-23.6303 -5.4007,0.8212 -6.0424,1.2361 -8.7811,5.6771 -5.9583,9.6616 -7.4052,18.7539 -8.316,52.2577 -0.9003,33.1208 -1.9998,41.3704 -7.6499,57.4013 -4.0267,11.4249 -6.0485,15.4805 -13.1266,26.332 -10.1764,15.6015 -26.3833,30.8486 -44.8331,42.1777 -10.5203,6.46 -40.7306,20.8746 -60.2667,28.7558 -24.2168,9.7694 -39.6797,15.0948 -73.0667,25.164 -43.6094,13.1525 -67.8514,18.1274 -109.3333,22.4376 -13.2813,1.38 -32.0591,1.7753 -95.4667,2.0096 -43.4133,0.1604 -90.4533,-0.099 -104.5333,-0.5765 z m 1453.3743,-601.0349 c 32.2416,-58.7669 57.3799,-121.9965 81.6346,-205.3333 11.5186,-39.5769 11.8945,-40.6508 17.6457,-50.4065 8.8305,-14.9792 18.8373,-24.6211 35.0787,-33.7995 17.303,-9.7784 32.0786,-22.6376 41.9256,-36.4879 24.4892,-34.4452 52.3695,-91.9856 66.3356,-136.9061 18.0058,-57.9134 26.3149,-115.1456 26.5588,-182.9334 0.1181,-32.7924 -0.3888,-38.2355 -4.8664,-52.2666 -4.5625,-14.2969 -15.3499,-28.382 -25.6791,-33.5292 -6.4681,-3.2232 -16.6502,-3.7234 -22.8726,-1.1235 -2.1245,0.8877 -4.1388,1.3381 -4.476,1.0008 -2.3406,-2.3407 5.4451,-61.2978 0.9408,-122.5181 C 1788.9193,531.5634 1490,250 1047.3333,247.5033 630,250 324.1492,551.83 320,1120 c 4.5307,83.6432 11.3622,112.4878 9.1241,123.9307 -0.032,0.1617 -1.6175,-0.5488 -3.5241,-1.5789 -5.4158,-2.9258 -18.1184,-2.5772 -24.2641,0.666 -7.6713,4.0483 -16.3393,13.7415 -21.2531,23.7669 -9.3768,19.1313 -11.2266,38.8378 -8.6006,91.6289 5.3183,106.9181 31.2256,192.8691 83.2147,276.0757 14.8307,23.736 29.3101,38.2163 49.6053,49.6082 17.8448,10.0164 31.2137,23.2517 38.5366,38.1517 1.8167,3.6965 7.4231,21.1208 12.4588,38.7208 C 570,2160 790,2335 1050,2350 c 260,-10 408.9712,-146.5812 537.7743,-375.6967 z"
       id="path923"
       sodipodi:nodetypes="cssssssssscssssssssssscccccscsscssssssssssssssssscsssssscccsssssssssscccsssssssssscccssssssssccc" />
  </g>
</svg>
